<?xml version="1.0" standalone="no"?><!DOCTYPE svg PUBLIC "-//W3C//DTD SVG 1.1//EN" "http://www.w3.org/Graphics/SVG/1.1/DTD/svg11.dtd"><svg t="1746125937002" class="icon" viewBox="0 0 1024 1024" version="1.1" xmlns="http://www.w3.org/2000/svg" p-id="1307" xmlns:xlink="http://www.w3.org/1999/xlink" width="32" height="32"><path d="M851.565714 73.142857H172.397714C97.389714 73.142857 36.571429 136.118857 36.571429 213.796571v421.997715c0 77.677714 60.818286 140.653714 135.826285 140.653714h271.652572l177.956571 157.952L681.801143 987.428571l24.502857-76.068571 43.410286-134.948571h101.851428c75.081143 0 135.862857-62.976 135.862857-140.653715V213.796571C987.428571 136.118857 926.646857 73.142857 851.565714 73.142857zM914.285714 635.794286c0 24.137143-6.034286 41.874286-18.066285 53.028571-10.422857 9.654857-25.270857 14.482286-44.653715 14.482286h-155.136l-49.92 155.026286-174.628571-155.026286H172.397714c-19.346286 0-34.230857-4.827429-44.617143-14.482286-12.032-11.190857-18.066286-28.891429-18.066285-53.028571V213.796571c0-24.173714 6.034286-41.874286 18.066285-53.065142 10.386286-9.618286 25.270857-14.445714 44.617143-14.445715h679.168c19.346286 0 34.230857 4.827429 44.653715 14.482286 12.032 11.190857 18.066286 28.854857 18.066285 53.028571v421.997715z" fill="#1296db" p-id="1308"></path><path d="M292.571429 438.857143m-73.142858 0a73.142857 73.142857 0 1 0 146.285715 0 73.142857 73.142857 0 1 0-146.285715 0Z" fill="#1296db" p-id="1309"></path><path d="M512 438.857143m-73.142857 0a73.142857 73.142857 0 1 0 146.285714 0 73.142857 73.142857 0 1 0-146.285714 0Z" fill="#1296db" p-id="1310"></path><path d="M731.428571 438.857143m-73.142857 0a73.142857 73.142857 0 1 0 146.285715 0 73.142857 73.142857 0 1 0-146.285715 0Z" fill="#1296db" p-id="1311"></path></svg>